# xmcd
#
# Track frame offsets:
#	150
#	10395
#	21475
#	32647
#	43410
#	53555
#	65435
#	74667
#	86882
#	98670
#	107975
#	118140
#	128272
#	141667
#	151992
#
# Disc length: 2150 seconds
#
# Revision: 0
# Processed by: cddbd v1.4PL0 Copyright (c) Steve Scherf et al.
# Submitted via: audiograbber 1.80.04
#
DISCID=da08640f
DTITLE=The Drifters - Sound Sensation
DYEAR=1900
DGENRE=Pop
TTITLE0=There Goes My Baby
TTITLE1=This Magic Moment
TTITLE2=Some Kind Of Wonderful
TTITLE3=Dance With Me
TTITLE4=Save the Last Dance For Me
TTITLE5=Seeets For My Sweet
TTITLE6=Saturday Night At The Movies
TTITLE7=I'll Take You Home
TTITLE8=Under The Boardwalk
TTITLE9=I Count The Tears
TTITLE10=Up On The Roof
TTITLE11=Please Stay
TTITLE12=On Broadway
TTITLE13=When My Little Girl Is Smiling
TTITLE14=(If You Cry) True Love, True Love
EXTD=
EXTT0=
EXTT1=
EXTT2=
EXTT3=
EXTT4=
EXTT5=
EXTT6=
EXTT7=
EXTT8=
EXTT9=
EXTT10=
EXTT11=
EXTT12=
EXTT13=
EXTT14=
PLAYORDER=
